<?xml version="1.0" encoding="utf-8"?>
<!-- Generator: Adobe Illustrator 28.0.0, SVG Export Plug-In . SVG Version: 6.00 Build 0)  -->
<svg version="1.1" id="Layer_1" xmlns="http://www.w3.org/2000/svg" xmlns:xlink="http://www.w3.org/1999/xlink" x="0px" y="0px"
	 viewBox="0 0 100 100" style="enable-background:new 0 0 100 100;" xml:space="preserve">
<style type="text/css">
	.st0{display:none;}
	.st1{display:inline;fill:#B3BAC0;}
	.st2{fill:#CCDBE8;}
	.st3{fill:#B3C9D7;}
	.st4{fill:#8999A7;}
	.st5{fill:#3D586F;}
	.st6{fill:#1F99C7;}
	.st7{fill:#085281;}
	.st8{fill:#0F82B8;}
	.st9{fill:#086CA1;}
	.st10{fill:#063A5E;}
	.st11{fill:#9ABB4C;}
	.st12{fill:url(#SVGID_1_);}
	.st13{fill:#10423A;}
	.st14{fill:#0A4147;}
	.st15{fill:#EFFFE6;}
	.st16{fill:#065473;}
	.st17{fill:#06495D;}
	.st18{fill:#C3F1F2;}
	.st19{fill:#719B36;}
	.st20{fill:#74889E;}
	.st21{fill:#7EA6C3;}
	.st22{fill:#619ABC;}
	.st23{fill:#4E89AC;}
	.st24{fill:#2F6280;}
	.st25{fill:#24475F;}
	.st26{fill:#1E3849;}
	.st27{fill:#22B573;stroke:#22B573;stroke-width:0.25;stroke-miterlimit:10;}
	.st28{fill:#006837;stroke:#006837;stroke-width:0.25;stroke-miterlimit:10;}
</style>
<g>
	<g id="Background_00000072269963019062240150000014392097349727548809_" class="st0">
		<path class="st1" d="M99,1.5c0,48.5,0,48.5,0,97c-48.5,0-48.5,0-97,0C2,50,2,50,2,1.5C50.5,1.5,50.5,1.5,99,1.5z"/>
	</g>
	<g>
		<path class="st2" d="M27.06,20.54c2.58-0.4,1.33,2.88-0.28,2.18C25.85,22.32,26,20.7,27.06,20.54z"/>
		<g>
			<path class="st3" d="M77.21,71.69c-0.51-0.4-0.91-0.87-0.85-0.47c-0.81,0.83-0.81,0.83-1.61,1.66c-0.04,0.16,0.12,0.37,0.19,0.52
				c-0.36,0.32-0.01,0.28,0,0.33c0.12,1.16-0.25,2.53,0.19,2.6c-0.16,0.13-0.25,0.41-0.47,0.47c-0.5,0.19-8.19-1.3-10.47-1.42
				c-1.99-0.11-5.75-0.03-7.96,0c-2.59,0.04-5.42,0.89-7.86-0.38c-7.25,0.32-14.52,0.41-21.65,1.89c-0.71-1.02-0.71-1.02-1.42-2.04
				c0.94-1.11-0.46-3.44-0.85-3.46c-0.4-0.02-0.66,0.67-0.95,0.33c-6.24-6.85-8.92-15.51-8.24-24.72
				c1.26-17.05,15.32-30.7,32.25-32.06c11.63-0.94,22.94,3.74,30.27,12.84c9.31,11.56,10.76,28.59,1.99,40.92
				C79.06,69.7,77.78,70.89,77.21,71.69z"/>
			<g>
				<path class="st4" d="M77.21,71.69c-0.08,0.12-0.12,0.23-0.09,0.38c-0.38-0.43-0.38-0.43-0.76-0.85
					C76.3,70.82,76.7,71.29,77.21,71.69z"/>
				<path class="st5" d="M55.9,72.73c-3.76,3.79-7,2.87-10.89-0.09C47.68,73.11,53.28,73.25,55.9,72.73z"/>
				<g>
					<path class="st6" d="M42.45,25.66c-0.33,1.44-0.02,2.84,1.52,3.27c-0.12,0.39-0.24,1.08-0.19,1.47
						c-0.85-0.48,0.12,1.95,1.47,2.18c2.07,0.35,4.91-3.14,6.73-4.17c2.11,0.37,3.27,0.98,5.35,0.09c0.41-0.17,2.21-1.33,2.18-1.75
						c-0.02-0.28-0.41-0.12-0.38-0.52c0.02-0.02,0.18-0.27,0.33-0.38c2.17,1.11,4.14,2.61,5.64,4.55c-2.72-0.76-5.35-2.13-6.82,0.14
						c-0.27,0.41-0.98,1.97-0.95,2.32c0.05,0.53,0.47,1.08,0.47,1.23c0.02,0.82-2.19,3.27-2.46,3.98c-0.01,0.02-0.23,0.03-0.19,0.33
						c0.66,0.92,0.66,0.92,1.33,1.85c-1.93,0.74-3.85,2.57-3.88,4.74c0,0.18-0.02,0.4,0,0.57c-0.17,0-0.05-0.27-0.14-0.28
						c-0.08-0.01-0.03,0.17-0.05,0.19c-0.39,0.56-0.43,1.35-0.76,1.94c0.05,0.21,0.05,0.21,0.09,0.43
						c-1.33,1.68-5.89,2.13-7.96,2.18c-1.36-0.96-4.17-1.87-5.26-2.75c-1-0.8-0.23-1.32-0.71-1.42c-0.09-0.74-0.47-1.53-0.38-2.27
						c0.24-2.09,4.89-5.45,6.54-6.77c-0.15-0.26-0.46-0.49-0.47-0.52c-0.11-0.19-0.38-0.97-0.66-0.76
						c-0.32-1.34-1.93-2.35-1.33-3.79c0.61-0.12,0.9-0.71,0.85-1.23c-0.25-2.9-5.2-0.37-6.73,0C37.99,28.45,38.8,27.24,42.45,25.66z
						"/>
					<path class="st7" d="M73.9,43.37c1.48,6.01,0.25,12.7-2.94,18c-0.2-0.38,0.78-1.64,1.14-2.42c0.12-0.26,0.9-2.14,0.95-2.27
						c1.09-3.1-0.85,0.83-1.61,1.52c-0.3,0.67-0.83,2.03-1.14,2.56c-0.38,0.65-1.25,1.06-0.76,1.23c-1.07,1.07-1.07,1.07-2.13,2.13
						c-1.48,0.76-2.9,1.56-4.45,2.18c-0.11,0.04-0.92-0.02-2.18,0.85c-1.49,0.26-2.84,0.81-4.26,1.33
						c-2.23,0.55-9.32,1.23-10.99,0.09c-0.09-0.06-0.79-1.11-0.81-1.18c-0.25-1.47,3.26-3.31,4.64-5.97
						c0.49-0.95,1.46-3.67,0.85-3.84c0.25-0.88,0.27-1.75,0.19-2.65c0.26,0.54,0.51,1.88,0.57,2.46c0.06,0.59,0.12,1.2,0.09,1.8
						c-0.14,0.02-0.14,0.02-0.28,0.05c0.03,0.75-0.76,2.41-1.23,3.13c-0.99,1.5-3.46,3.16-2.89,3.65c4.72-0.09,11.1-1.79,15.39-3.79
						c0.11,0.29,0.18,0.27,0.19,0.28c0.57,0.96,1.12,1.14,2.23,1.04c-0.25-0.46,0.92-0.88,1.28-1.28c0.08-0.09,1.17-1.66,1.33-1.89
						c0.72-1.09,1.04-2.92,1.99-2.51c0.02-0.55,1.02-2.4,0.38-2.65c-0.37-0.15-0.97,0.31,0-2.04c0.08-0.19,1.29-1.88,1.71-3.65
						c0.51,0.06,0.05,2.16,0.71,1.71c0.21-0.15-0.19-1.24,1.23,0.66c0.87-0.87,0.49-5.83,0.24-6.96c-0.29-1.28-1.29-2.25-0.47-2.18
						c-0.57-0.38-0.64,0.42-1.04,0.95c-0.46,0.6-0.92,1.19-1.42,1.75c-0.21,0.24-0.11,0.29-0.24,0.38c-0.04,0.03,0-0.3-0.24-0.09
						c-2.46-3.66-3-5.65,0.14-0.95c0.83-1.11,0.83-1.11,1.66-2.23C65.72,38.8,72.2,41.33,73.9,43.37z"/>
					<path class="st7" d="M70.96,61.37c-2.08,3.46-5.43,6.82-9,8.71c-1.11,0.19-1.11,0.19-2.23,0.38
						c-3.33,2.53-11.51,2.3-15.35,1.42c-0.35-0.08-3.02-0.83-2.94-1.14c-0.66,0.39-1.65-0.75-2.13-0.38
						c-2.15-1.22-4.64-3.09-6.25-4.97c-0.03-0.03,0.02-0.21,0-0.24c-0.51-0.61-0.95-1.25-1.42-1.89c3.1,0.24,6.05,1.31,9.09,1.89
						c0.13,0.34,0.58,1.29,0.76,1.28c-0.22,0.61,0.11,0.93-0.09,1.61c1.02,1.28,2.36,1.55,3.84,2.04c0.16-0.1-1.46-2.64-1.56-3.36
						c1.38-3.16,5.61-5.89,6.54-9.14c0.61,0.17-0.36,2.89-0.85,3.84c-1.38,2.66-4.9,4.5-4.64,5.97c0.01,0.07,0.72,1.12,0.81,1.18
						c1.67,1.14,8.76,0.45,10.99-0.09c1.42-0.52,2.77-1.07,4.26-1.33c1.25-0.88,2.07-0.81,2.18-0.85c1.55-0.62,2.97-1.42,4.45-2.18
						c1.07-1.07,1.07-1.07,2.13-2.13c-0.49-0.17,0.37-0.58,0.76-1.23c0.31-0.53,0.84-1.89,1.14-2.56c0.76-0.69,2.7-4.62,1.61-1.52
						c-0.05,0.14-0.83,2.01-0.95,2.27C71.75,59.73,70.76,60.99,70.96,61.37z"/>
					<path class="st2" d="M44.25,31.15c-0.16-0.15-0.45-0.57-0.47-0.76c-0.05-0.39,0.07-1.07,0.19-1.47
						c-1.53-0.42-1.85-1.83-1.52-3.27c0.71-3.06,7.9-5.72,11.89-2.75c8.62,0.38,2.55,6.81-2.37,3.41c-1.22,0.73-5.23,4.34-5.97,4.64
						C44.88,31.42,44.37,30.64,44.25,31.15z"/>
					<path class="st8" d="M30.61,46.68c1.75,3.05,5.22,4.25,5.3,4.59c-0.23,1.06-0.06,2.53,0.28,3.55c0.2,0.6,0.82,1.45,1.14,2.08
						c-0.88,0.2-2.82,0.09-3.84,0c-0.8-0.07-2-0.4-2.75-0.47c-2.2-0.21-2.83,0.64-3.36-0.95c-0.92-3.09-1.28-5.94-1.04-9.19
						c0.6,0.68,0.66-0.03,1.37-0.47c0.56-0.07,1.46-0.06,1.8-0.47C29.99,46.14,29.38,46.59,30.61,46.68z"/>
					<path class="st9" d="M37.33,56.92c1.08,2.16,2.21,4.07,2.94,6.44c0.07,0.39,0.02,0.74,0.28,1.23
						c-1.31-0.26-2.64-0.44-3.93-0.76c-1.89-0.47-3.8-1.34-5.73-1.47c-0.09,0.11,0.7,0.81,0.76,0.9c0.47,0.65,0.91,1.28,1.42,1.89
						c-2.69-2.51-4.64-6.16-5.68-9.66c0.53,1.58,1.17,0.74,3.36,0.95c0.75,0.07,1.95,0.4,2.75,0.47
						C34.51,57.01,36.46,57.12,37.33,56.92z"/>
					<path class="st6" d="M29.47,39.58c-0.07,0.51-0.02,2.94-0.24,3.03c-0.05,0.02,0-0.14-0.14-0.19c-0.09-0.11-0.24-0.2-0.38-0.19
						c-0.73,0.06-0.87,1.32,0.38,1.14c0.32,0.15,0.99,2.4,1.52,3.32c-1.23-0.09-0.62-0.54-1.09-1.33c-0.34,0.41-1.24,0.4-1.8,0.47
						c-0.72,0.45-0.77,1.15-1.37,0.47c0.29-4,2.01-7.85,4.45-10.99C30.17,36.5,29.64,38.26,29.47,39.58z"/>
					<path class="st8" d="M52.77,27.46c-0.09,0.02-0.09,0.02-0.19,0.05c1.49,0.41,0.82,0.56,0.99,0.71c0.6,0.51,3.15-0.22,3.74,0.28
						c-2.08,0.89-3.25,0.27-5.35-0.09c-1.82,1.03-4.65,4.52-6.73,4.17c-1.35-0.23-2.32-2.66-1.47-2.18c0.03,0.19,0.31,0.6,0.47,0.76
						c1.93,1.79,5.12-2.65,7.81-4.07C52.24,27.18,52.63,27.42,52.77,27.46z"/>
					<path class="st10" d="M61.96,70.08c-1.38,0.98-4.48,2.34-6.06,2.65c-2.62,0.52-8.22,0.37-10.89-0.09
						c-2.05-0.36-3.89-1.26-5.68-2.27c0.48-0.37,1.47,0.77,2.13,0.38c-0.08,0.3,2.58,1.06,2.94,1.14c3.83,0.88,12.01,1.1,15.35-1.42
						C60.85,70.27,60.85,70.27,61.96,70.08z"/>
					<path class="st9" d="M57.32,28.5c-0.59-0.5-3.14,0.23-3.74-0.28c-0.18-0.15,0.49-0.3-0.99-0.71c0.09-0.02,0.09-0.02,0.19-0.05
						c2.84,0.75,4.09,0.51,6.35-1.23c-0.03,0.4,0.36,0.25,0.38,0.52C59.54,27.17,57.73,28.32,57.32,28.5z"/>
					<path class="st8" d="M61.58,55.02c-0.48,1.03-1.2,0.52-1.75,0.66c-0.39,0.1-1.58,0.63-2.08,0.76c-0.22,0.05-0.63-0.05-0.85,0
						c-0.97,0.23-1.92,0.73-2.94,0.66c-1.4,0.93-2.16,0.18-2.98,0.28c-0.06-0.59-0.31-1.92-0.57-2.46c-0.05,0-0.05,0-0.09,0
						c-0.2-1.28-2.91-1.54-4.88-2.65c-1.05-0.6-1.99-1.48-2.89-2.27c0.21,0.09,0.21,0.09,0.43,0.19c0.12-0.06,0.76-0.19,0.81-0.19
						c2.07-0.05,6.62-0.5,7.96-2.18c0.64,0.64,1.1,1.47,1.71,2.13c2.6,2.82,3.07,1.81,6.58,2.79
						C60.37,52.95,61.19,54.52,61.58,55.02z"/>
					<path class="st9" d="M37.43,43.56c-3.58,1.85-3.12,1.81-0.81,5.68c0.07-0.11,0.12-0.1,0.24-0.09
						c-0.09,0.19-0.34,0.35-0.38,0.57c-0.14,0-0.14,0-0.28,0c-0.99-1.11-0.99-1.11-1.99-2.23c0.28-1.14,0.28-1.14,0.57-2.27
						c-0.04-0.15-0.88-0.4-1.04-0.43c-2.94-0.99,1.44-1.32,2.42-1.89c1.07-0.63,3.4-4.23,4.26-4.93c0.65-0.53,2.29-1.1,3.08-1.71
						c0.02,0.03,0.32,0.26,0.47,0.52C42.31,38.11,37.67,41.47,37.43,43.56z"/>
					<path class="st9" d="M62.06,55.49c-0.21-0.1-0.34-0.3-0.47-0.47c-0.39-0.5-1.21-2.07-1.56-2.27c-3.52-0.98-3.98,0.02-6.58-2.79
						c-0.61-0.66-1.07-1.49-1.71-2.13c-0.05-0.21-0.05-0.21-0.09-0.43c0.33-0.59,0.36-1.38,0.76-1.94
						c-0.64,2.01,1.59,3.78,2.89,5.12c3.67,0.3,6.47-1.26,6.02,2.7c0.47,0.85,0.47,0.85,0.95,1.71
						C62.23,55.12,62.06,55.45,62.06,55.49z"/>
					<path class="st6" d="M37.81,45.83c-0.16-0.04-0.57,0.39-0.57,0.43C37.24,46.33,37.99,47.32,37.81,45.83
						c0.48,0.1-0.29,0.62,0.71,1.42c1.09,0.87,3.9,1.79,5.26,2.75c-0.04,0-0.68,0.13-0.81,0.19c-0.21-0.09-0.21-0.09-0.43-0.19
						c-1.64-1.43-3.74-0.84-5.68-0.85c-0.11,0-0.16-0.01-0.24,0.09c-2.31-3.88-2.78-3.83,0.81-5.68
						C37.34,44.31,37.71,45.09,37.81,45.83z"/>
					<path class="st7" d="M52.58,45.55c0.14,1.14,1.47,3.3,2.42,4.07c8.98-0.01,6.17,0.68,6.77,3.55c0.02,0.09,0.82,1.32,0.85,1.52
						c0.18,1.26-1.03,7.03,0.47,8c-0.66-0.1-0.96-1.2-0.85-0.19c-0.01-0.01-0.08,0-0.19-0.28c-0.12-0.31-0.17-1.32-0.19-1.71
						c-0.06-1.67,0.16-3.35,0.19-5.02c0-0.04,0.17-0.37,0.19-0.52c-0.47-0.85-0.47-0.85-0.95-1.71c0.46-3.96-2.35-2.4-6.02-2.7
						c-1.3-1.34-3.53-3.11-2.89-5.12c0.02-0.02-0.03-0.2,0.05-0.19C52.54,45.28,52.42,45.55,52.58,45.55z"/>
					<path class="st8" d="M62.72,39.3c0.32,0.3,0.69,0.59,0.95,0.95c-1.27-0.48-1.66-1.19-2.6-2.08c-0.34-0.07-2.88,1.07-3.27,1.47
						c-0.06,0.13,0.32,0.26,0.47,0.33c-0.63-0.06-1.21,0.06-1.8,0.28c-0.66-0.92-0.66-0.92-1.33-1.85c-0.04-0.3,0.18-0.31,0.19-0.33
						c0.66,0.52,0.66,0.52,1.33,1.04c-0.03,0.05-0.74,0.71,0.24,0.66c0.5-0.03,1.11-1.48,1.42-1.89c1.42-0.09,1.42-0.09,2.84-0.19
						C61.65,38.26,62.17,38.78,62.72,39.3z"/>
					<path class="st10" d="M71.15,49.53c-0.42,1.76-1.63,3.46-1.71,3.65c-0.97,2.35-0.37,1.89,0,2.04
						c-0.33,0.85-1.23,2.62-0.38,2.65c-0.95-0.41-1.27,1.42-1.99,2.51c-0.15,0.24-1.25,1.81-1.33,1.89
						c-0.35,0.4-1.53,0.82-1.28,1.28c-1.11,0.1-1.66-0.08-2.23-1.04c-0.1-1.01,0.19,0.09,0.85,0.19c2.56,0.39,6.18-7.84,5.68-10.18
						c0.44-0.76,1.34-1.99,1.61-2.75c0.98-2.73,0.12-3.14-0.47-4.03c0.24-0.2,0.2,0.12,0.24,0.09c0.12-0.09,0.03-0.14,0.24-0.38
						c0.02,0.11-0.02,0.26,0,0.33C70.46,45.98,71.84,46.61,71.15,49.53z"/>
					<path class="st6" d="M63.67,40.24c0.85,0.32,2.01,0.13,2.37,1.14c-0.95,0-2,0.02-2.94-0.09c-1.12-0.13-3.83-0.85-4.83-1.33
						c-0.15-0.07-0.53-0.2-0.47-0.33c0.39-0.4,2.93-1.54,3.27-1.47C62.01,39.05,62.4,39.76,63.67,40.24z"/>
					<path class="st9" d="M63.57,39.39c0.83,0.14,1.67,0.19,2.51,0.28c0.31,0.83,0.31,0.83,0.62,1.66c-0.27,0.32-0.6,0.05-0.66,0.05
						c-0.36-1-1.52-0.82-2.37-1.14c-0.26-0.36-0.62-0.65-0.95-0.95C62.75,39.09,63.13,39.32,63.57,39.39z"/>
					<g>
						<path class="st11" d="M58.27,39.96c1,0.47,3.71,1.19,4.83,1.33c-0.05,0.26,1.21,0.27,1.99,0.43
							c-0.83,0.02-0.83,0.02-1.66,0.05c-1.28,1.85-1.28,1.85-2.56,3.69c-0.81,0.35-4.98,3.91-5.3,3.98
							c-1.27,0.26-2.8-3.35-2.98-4.45c0.03-2.17,1.96-4,3.88-4.74C57.05,40.02,57.64,39.9,58.27,39.96z"/>
						<path class="st7" d="M63.57,39.39c-0.44-0.07-0.82-0.3-0.85-0.09c-0.55-0.52-1.07-1.04-1.56-1.61
							c-1.42,0.09-1.42,0.09-2.84,0.19c-0.31,0.41-0.92,1.87-1.42,1.89c-0.98,0.05-0.26-0.61-0.24-0.66
							c0.31-0.58,0.65-1.15,0.99-1.71c2.08-0.09,2.08-0.09,4.17-0.19C62.34,38,62.71,38.9,63.57,39.39z"/>
						<g>
							<path class="st7" d="M60.45,31.81c-0.01,0.03-0.15,0.53-0.19,0.66c-0.12,0.43-0.25,0.85-0.47,1.23
								c-0.58,0.07-1.15-0.07-1.99,0.38c0-0.15-0.42-0.7-0.47-1.23c2.97,0.99,2.44-1.68,2.6-1.8C60.57,30.6,60.5,31.44,60.45,31.81z
								"/>
							<path class="st7" d="M61.49,33.42c-0.33-0.42-0.62-0.84-0.85-1.33c-0.03-0.06-0.06-0.13-0.09-0.19
								c1.17-0.52,2.24,0.61,2.08,1.09C62.57,33.18,61.69,33.35,61.49,33.42z"/>
							<g>
								<linearGradient id="SVGID_1_" gradientUnits="userSpaceOnUse" x1="57.8222" y1="32.1278" x2="69.8037" y2="58.522">
									<stop  offset="0" style="stop-color:#96BA50"/>
									<stop  offset="1" style="stop-color:#629132"/>
								</linearGradient>
								<path class="st12" d="M65.09,30.39c4.25,3.1,7.8,7.77,8.81,12.98c-1.7-2.03-8.18-4.57-2.18-0.81
									c-0.83,1.11-0.83,1.11-1.66,2.23c-3.14-4.71-2.6-2.71-0.14,0.95c0.6,0.89,1.46,1.3,0.47,4.03
									c-0.27,0.76-1.17,1.99-1.61,2.75c0.49,2.34-3.12,10.57-5.68,10.18c-1.5-0.97-0.29-6.74-0.47-8
									c-0.03-0.2-0.83-1.43-0.85-1.52c-0.6-2.87,2.21-3.56-6.77-3.55c-0.94-0.77-2.28-2.93-2.42-4.07c-0.02-0.17,0-0.39,0-0.57
									c0.19,1.11,1.71,4.71,2.98,4.45c0.32-0.07,4.5-3.62,5.3-3.98c1.28-1.85,1.28-1.85,2.56-3.69c0.83-0.02,0.83-0.02,1.66-0.05
									c-0.78-0.16-2.04-0.16-1.99-0.43c0.94,0.11,1.99,0.1,2.94,0.09c0.06,0,0.39,0.27,0.66-0.05c-0.31-0.83-0.31-0.83-0.62-1.66
									c-0.84-0.09-1.68-0.15-2.51-0.28c-0.86-0.49-1.23-1.39-1.75-2.18c-2.08,0.09-2.08,0.09-4.17,0.19
									c-0.35,0.56-0.69,1.12-0.99,1.71c-0.66-0.52-0.66-0.52-1.33-1.04c0.27-0.71,2.49-3.16,2.46-3.98
									c0.84-0.45,1.41-0.31,1.99-0.38c0.09-0.01,0.32,0.19,1.71-0.28c0.21-0.07,1.08-0.25,1.14-0.43
									c0.16-0.48-0.91-1.61-2.08-1.09c-0.01-0.02,0.02-0.1-0.09-0.09c0.06-0.38,0.13-1.22-0.52-0.76c-0.17,0.12,0.37,2.79-2.6,1.8
									c-0.03-0.35,0.68-1.91,0.95-2.32C59.74,28.27,62.36,29.64,65.09,30.39z"/>
								<path class="st13" d="M65.14,35.6c0.13-0.03,2.34,1.12,2.23,1.28c-1.21-0.17-1.21-0.17-2.42-0.33
									C64.63,36.46,65.05,35.63,65.14,35.6z"/>
								<path class="st14" d="M62.96,36.17c0.79,0.34,1.71,0.56,2.32,1.18C63.82,37.27,62.45,37.52,62.96,36.17z"/>
							</g>
							<path class="st6" d="M61.49,33.42c-1.39,0.48-1.62,0.27-1.71,0.28c0.23-0.39,0.35-0.8,0.47-1.23
								c0.19-0.19,0.19-0.19,0.38-0.38C60.87,32.58,61.16,33,61.49,33.42z"/>
							<path class="st15" d="M60.54,31.91c0.03,0.06,0.07,0.13,0.09,0.19c-0.19,0.19-0.19,0.19-0.38,0.38
								c0.04-0.13,0.18-0.63,0.19-0.66C60.56,31.8,60.53,31.89,60.54,31.91z"/>
						</g>
					</g>
					<path class="st9" d="M62.06,55.49c-0.03,1.67-0.25,3.35-0.19,5.02c-0.36,0.33-0.36,0.33-0.71,0.66
						c-4.01,0.6-7.74,2.39-11.75,2.84c-0.07-0.07-0.07-0.07-0.14-0.14c0.76-1.21,0.53-1.35,0.57-1.42c0.08-0.16,1.13-0.73,1.23-3.27
						c0.02-0.6-0.04-1.21-0.09-1.8c0.82-0.1,1.58,0.65,2.98-0.28c1.02,0.07,1.96-0.43,2.94-0.66c0.22-0.05,0.63,0.05,0.85,0
						c0.51-0.12,1.69-0.65,2.08-0.76c0.55-0.15,1.28,0.37,1.75-0.66C61.72,55.2,61.85,55.39,62.06,55.49z"/>
					<path class="st7" d="M51.07,59.19c-0.11,2.54-1.15,3.11-1.23,3.27c-0.04,0.07,0.19,0.21-0.57,1.42
						c0.07,0.07,0.07,0.07,0.14,0.14c4.01-0.45,7.73-2.24,11.75-2.84c0.36-0.33,0.36-0.33,0.71-0.66c0.01,0.39,0.07,1.4,0.19,1.71
						c-4.29,2-10.68,3.7-15.39,3.79c-0.57-0.48,1.9-2.15,2.89-3.65c0.47-0.72,1.27-2.37,1.23-3.13
						C50.93,59.21,50.93,59.21,51.07,59.19z"/>
					<path class="st7" d="M71.15,49.53c0.69-2.92-0.69-3.55-0.76-3.74c-0.02-0.07,0.02-0.22,0-0.33c0.5-0.56,0.96-1.15,1.42-1.75
						c0.41-0.53,0.47-1.33,1.04-0.95c-0.82-0.07,0.18,0.89,0.47,2.18c0.26,1.13,0.63,6.09-0.24,6.96c-1.43-1.91-1.02-0.81-1.23-0.66
						C71.2,51.69,71.66,49.59,71.15,49.53z"/>
					<path class="st11" d="M69.07,57.86c-0.85-0.03,0.05-1.81,0.38-2.65C70.09,55.47,69.09,57.31,69.07,57.86z"/>
					<path class="st7" d="M40.55,64.59c0.11,0.17,0.12,0.39,0.19,0.57c-3.05-0.58-5.99-1.65-9.09-1.89
						c-0.06-0.09-0.84-0.79-0.76-0.9c1.93,0.13,3.84,1,5.73,1.47C37.91,64.15,39.25,64.33,40.55,64.59z"/>
					<path class="st9" d="M29.47,39.58c-0.1,1.61,0.23,3.19,0.66,4.74c0.4,1.46,0.7,2.81,2.51,3.03c0.43,0.51,0.73,1.17,1.18,1.66
						c1.05,1.15,1.09,1.14,2.18,0.81c0.05-0.01,0.13,0.01,0.19,0c0.25,0.82-0.11,1.92,0,3.36c0.04,0.48,0.73,1.37,0,1.66
						c-0.35-1.02-0.51-2.5-0.28-3.55c-0.09-0.34-3.56-1.55-5.3-4.59c-0.52-0.91-1.19-3.17-1.52-3.32c0.22-0.35,0.08-0.84,0-0.95
						c0.14,0.05,0.09,0.21,0.14,0.19C29.45,42.52,29.4,40.09,29.47,39.58z"/>
					<path class="st7" d="M36.48,49.72c-0.03,0.18-0.12,3.18-0.09,3.46c0.22,2.29,2.2,3.86,3.69,5.4c0,0.65,0.12,1.31,0.28,1.94
						c-0.28,0.97-0.02-0.1-0.47,0.33c0.37,1.04,0.35,2.35,0.38,2.51c-0.73-2.37-1.86-4.28-2.94-6.44c-0.32-0.63-0.93-1.48-1.14-2.08
						c0.73-0.29,0.04-1.18,0-1.66c-0.11-1.45,0.25-2.55,0-3.36c0-0.05,0-0.05,0-0.09C36.34,49.72,36.34,49.72,36.48,49.72z"/>
					<path class="st16" d="M36.01,49.81c-1.08,0.33-1.13,0.34-2.18-0.81c-0.45-0.49-0.76-1.14-1.18-1.66
						c-1.81-0.22-2.11-1.57-2.51-3.03c1.21,3.2,2.8,2.41,3.46,2.84C33.75,47.26,34.81,49.39,36.01,49.81z"/>
					<g>
						<path class="st11" d="M42.35,30.49c-0.24,0.51-1.24,0.91-1.75,0.76c-0.55-0.17,0.05-1.51-1.04-0.85
							c-0.48,0.29-0.03,0.9-0.38,1.33c-0.41,0.5-4.19,1.35-2.32,2.37c1.4,0,1.4,0,2.79,0c0.06-0.28,0.13-0.56,0.14-0.85
							c0.15-0.52,0.43-1,0.57-1.52c0-0.01,0.1,0.02,0.09-0.09c0.34,0.03,0.69,0.16,1.04,0.09c-0.61,1.44,1,2.45,1.33,3.79
							c-0.46,0.62-2.76,1.33-2.89,1.42c-0.54,0.37-3.45,4.7-4.45,5.59c-0.76,0.29-2.75,0.51-3.13,0.66
							c-0.93,0.37-1.22,2.38,0.85,2.46c0.02-0.83-0.6-1.03,0.52-0.85c0.16,0.03,1,0.28,1.04,0.43c-0.28,1.14-0.28,1.14-0.57,2.27
							c0.99,1.11,0.99,1.11,1.99,2.23c0,0.05,0,0.05,0,0.09c-0.06,0.01-0.14-0.01-0.19,0c-1.2-0.42-2.26-2.55-2.42-2.65
							c-0.66-0.43-2.25,0.36-3.46-2.84c-0.43-1.55-0.77-3.13-0.66-4.74c0.17-1.32,0.7-3.08,1.33-4.26c1.19-2.24,3.05-3.3,4.83-4.83
							C37.16,30.12,42.11,27.59,42.35,30.49z"/>
						<path class="st17" d="M43.49,36.26c-0.78,0.61-2.43,1.18-3.08,1.71c-0.86,0.7-3.19,4.3-4.26,4.93
							c-0.98,0.57-5.36,0.9-2.42,1.89c-1.12-0.18-0.5,0.02-0.52,0.85c-2.07-0.09-1.78-2.1-0.85-2.46c0.38-0.15,2.36-0.37,3.13-0.66
							c1-0.89,3.91-5.22,4.45-5.59c0.13-0.09,2.43-0.8,2.89-1.42C43.11,35.29,43.38,36.08,43.49,36.26z"/>
						<path class="st17" d="M42.35,30.49c0.04,0.52-0.24,1.11-0.85,1.23c-0.35,0.07-0.7-0.06-1.04-0.09
							c-0.53-0.05-0.7,0.05-0.09,0.09c-0.14,0.52-0.41,1-0.57,1.52c0.01-0.25-0.06-0.5,0.09-0.62c-0.17-0.28-2.76,1.14-3.03,1.47
							c-1.87-1.02,1.91-1.87,2.32-2.37c0.35-0.42-0.1-1.04,0.38-1.33c1.09-0.66,0.49,0.69,1.04,0.85
							C41.12,31.4,42.12,31,42.35,30.49z"/>
						<path class="st6" d="M39.8,33.23c-0.01,0.29-0.08,0.57-0.14,0.85c-1.4,0-1.4,0-2.79,0c0.28-0.33,2.86-1.75,3.03-1.47
							C39.73,32.73,39.81,32.99,39.8,33.23z"/>
						<path class="st18" d="M40.46,31.62c0.01,0.12-0.09,0.09-0.09,0.09C39.76,31.68,39.93,31.58,40.46,31.62z"/>
					</g>
					<path class="st11" d="M28.71,42.23c0.08,0.27,0.29,0.16,0.38,0.19c0.08,0.11,0.22,0.59,0,0.95
						C27.84,43.55,27.99,42.29,28.71,42.23z"/>
					<path class="st9" d="M29.09,42.42c-0.09-0.03-0.3,0.08-0.38-0.19C28.86,42.22,29,42.31,29.09,42.42z"/>
					<path class="st19" d="M42.54,50c0.9,0.8,1.84,1.68,2.89,2.27c1.97,1.12,4.68,1.37,4.88,2.65c0.11,0.72-1.26,3.42-1.71,4.12
						c-1.3,2.05-4.38,4.63-4.55,4.93c-0.05,0.1-0.39,2-0.71,2.13c-0.17,0.07-1.1,0.03-1.28-0.14c-0.38-0.38-1.49-4.61-1.71-5.45
						c-0.16-0.63-0.28-1.29-0.28-1.94c-1.5-1.54-3.47-3.11-3.69-5.4c-0.03-0.28,0.06-3.28,0.09-3.46c0.04-0.22,0.28-0.38,0.38-0.57
						C38.81,49.16,40.9,48.57,42.54,50z"/>
					<path class="st11" d="M37.81,45.83c0.19,1.49-0.57,0.5-0.57,0.43C37.24,46.22,37.64,45.8,37.81,45.83z"/>
					<g>
						<path class="st10" d="M50.22,57.58c-0.93,3.25-5.16,5.98-6.54,9.14c0.1,0.72,1.72,3.26,1.56,3.36
							c-1.48-0.49-2.81-0.76-3.84-2.04c0.2-0.68-0.12-1,0.09-1.61c-0.18,0.01-0.63-0.94-0.76-1.28c-0.07-0.18-0.08-0.4-0.19-0.57
							c-0.26-0.49-0.21-0.84-0.28-1.23c-0.03-0.16-0.01-1.47-0.38-2.51c0.45-0.43,0.19,0.64,0.47-0.33
							c0.22,0.84,1.33,5.07,1.71,5.45c0.18,0.18,1.11,0.21,1.28,0.14c0.32-0.13,0.66-2.03,0.71-2.13c0.16-0.29,3.24-2.88,4.55-4.93
							c0.45-0.7,1.82-3.4,1.71-4.12c0.05,0,0.05,0,0.09,0C50.48,55.82,50.47,56.7,50.22,57.58z"/>
						<path class="st19" d="M41.93,66.86c1.81-0.37,2.4,0.76,2.04,1.47C43.47,69.28,41.45,68.35,41.93,66.86z"/>
					</g>
				</g>
			</g>
		</g>
		<g>
			<path class="st3" d="M24.45,73.97c-0.29,0.19-0.48,0.44-0.81,0.57c-0.17-0.28-1.65-1.63-1.66-1.75c0-0.06,0.63-1.07,0.71-1.09
				c0.37-0.09,0.94,0.84,1.75-0.19c0.52,0.83,0.52,0.83,1.04,1.66C25.48,73.41,24.65,73.83,24.45,73.97z"/>
			<path class="st20" d="M26.72,76.9c-0.38,0.08-0.65,0.07-0.76,0.09c-0.49-1.02-1.95-2.65-1.52-3.03c0.2-0.13,1.03-0.56,1.04-0.81
				c-0.52-0.83-0.52-0.83-1.04-1.66c0-0.05,0-0.05,0-0.09c0.39,0.02,1.79,2.34,0.85,3.46C26.01,75.88,26.01,75.88,26.72,76.9z"/>
			<g>
				<path class="st3" d="M77.12,72.07c3.28-1.16,1.15,2.87-0.66,2.84c-0.52-0.01-1.29-1.03-1.52-1.52
					c-0.07-0.15-0.23-0.36-0.19-0.52c0.81-0.83,0.81-0.83,1.61-1.66C76.74,71.65,76.74,71.65,77.12,72.07z"/>
				<path class="st3" d="M76.46,74.91c0.02,0.17-0.51,0.7-0.76,0.95c-0.16,0.17-0.38,0.33-0.57,0.47c-0.44-0.07-0.07-1.45-0.19-2.6
					c-0.01-0.05-0.36-0.01,0-0.33C75.16,73.88,75.94,74.91,76.46,74.91z"/>
				<path class="st20" d="M75.7,77c-0.06-0.01-0.93,0.28-1.04-0.19c0.23-0.07,0.32-0.35,0.47-0.47c0.18-0.15,0.4-0.31,0.57-0.47
					C75.7,76.43,75.7,76.43,75.7,77z"/>
			</g>
			<g>
				<path class="st21" d="M74.66,76.81c0.12,0.47,0.99,0.18,1.04,0.19c0.01,0-0.03,0.17,0.05,0.19c2.29,0.51,6.84,1.42,3.41,3.98
					c-5.22,3.9-24.09,5.14-30.79,5.02c-6.47-0.12-15.68-1.25-21.88-3.13c-6.32-1.91-8.9-4.22-0.52-6.06
					c0.1-0.02,0.38-0.02,0.76-0.09c7.13-1.49,14.4-1.58,21.65-1.89c2.44,1.27,5.27,0.41,7.86,0.38c2.21-0.03,5.97-0.11,7.96,0
					C66.46,75.51,74.16,77,74.66,76.81z"/>
				<g>
					<path class="st22" d="M50.07,76.05c0.22,0,0.11,0.19,0.19,0.19c4.64-0.01,9.28,0.28,13.92,0.19c3.06,0.38,9.03,0.27,10.85,2.89
						c-2.82,1.55-7.32,2.09-10.56,2.42c-8.59,0.87-23.75,0.81-32.11-0.95c-2.65-0.56-8.72-1.93-1.99-2.75
						c1.15-1.23,7.29-1.5,9.47-1.61c2.02-0.1,4.28,0.04,6.35,0C47.44,76.4,49.54,76.05,50.07,76.05z"/>
					<path class="st23" d="M34.68,78.04c-1.68,0.35-0.16,1.39-0.05,1.42c0.15,0.04,2.37,0.01,2.89,0c1.2,0.39,4.95-0.14,1.47,0.57
						c2.31-0.04,4.61-0.01,6.92,0c0.02,0,0.36-0.19,0.38-0.19c0.09,0,0.37,0.48,0.95,0c0.34,0.24,0.11,0.36,0.19,0.38
						c0.81,0.24,14.87-0.02,16.91-0.43c-0.77-0.16-0.16-0.09,0.66-0.24c1.13,0.26,2.24-0.12,3.36-0.19c2.31-1.8-1.52-1.36-2.46-1.42
						c-0.04,0-0.12-0.15-0.81-0.19c-3.18-0.17-6.39-0.07-9.57-0.09c0-0.07-0.03-0.16,0.05-0.19c0.47-0.17,8.77-0.04,10.04,0
						c0.54,0.02,2.06,0.36,3.41,0c0.14,0.37,0.99,0.24,0.99,0.33c-1.76,0.18,2.09,0.04,2.27,1.04c0.14,0.77-2.62,1.05-3.08,1.28
						c-1.68,0.1-3.07,0.32-4.74,0.57c-6.32,0.45-12.61,0.52-18.95,0.28c-0.07,0-0.02-0.19-0.09-0.19c-1.94-0.07-3.92,0.18-5.87-0.09
						c1.03-0.44-0.05-0.17-0.09-0.19c-0.13-0.04-0.14-0.28-0.19-0.28c-1.42-0.21-0.75,0.03,0.09,0.47c-0.6,0.04-10-0.99-7.86-2.37
						C32.36,77.77,33.73,78.11,34.68,78.04z"/>
					<path class="st9" d="M37.52,77.85c-0.98,0.88-0.14,0.82-0.28,0.99c-0.04,0.05-0.83,0.18-1.04,0.38
						c1.08,0.01,3.88,0.19,1.33,0.24c-0.52,0.01-2.74,0.04-2.89,0c-0.11-0.03-1.63-1.07,0.05-1.42
						C35.64,77.97,36.56,77.89,37.52,77.85z"/>
					<path class="st24" d="M65.09,77.75c0.68,0.04,0.76,0.19,0.81,0.19c0.94,0.06,4.77-0.37,2.46,1.42
						c-1.12,0.07-2.23,0.45-3.36,0.19c0.49-0.09,1.42-0.24,0.24-0.28c-0.03,0-0.45,0.19-0.47,0.19c-1.37-0.03,2.19-0.36,2.32-0.9
						C67.24,77.89,63.7,78.02,65.09,77.75z"/>
					<g>
						<path class="st25" d="M55.52,77.66c3.18,0.02,6.39-0.07,9.57,0.09c-1.39,0.27,2.15,0.13,1.99,0.81
							c-0.13,0.54-3.69,0.87-2.32,0.9c0.03,0,0.45-0.19,0.47-0.19c1.19,0.04,0.25,0.2-0.24,0.28c-0.83,0.15-1.43,0.08-0.66,0.24
							c-2.04,0.4-16.1,0.67-16.91,0.43c-0.08-0.02,0.15-0.14-0.19-0.38c-0.57,0.48-0.85,0-0.95,0c-0.02,0-0.36,0.19-0.38,0.19
							c-2.3-0.01-4.61-0.04-6.92,0c3.48-0.71-0.27-0.18-1.47-0.57c2.56-0.05-0.25-0.23-1.33-0.24c0.22-0.19,1-0.33,1.04-0.38
							c0.14-0.17-0.69-0.12,0.28-0.99C43.51,77.59,49.52,77.62,55.52,77.66z"/>
						<path class="st26" d="M59.45,77.85c0.18-0.08,3.69,0.07,3.88,0.09c0.32,0.04,0.36,0.28,0.38,0.28
							c0.18,0.05,1.9-0.06,0.28,0.47c-0.48,0.16-3.52,0.3-2.56,0.66c2.79-0.12,0.82,0.05-0.95,0.28c-3.21-0.11-6.46,0.23-9.66,0.09
							c-2.04-0.09,0.17-0.15,1.18-0.33c-1.97-0.4-4.54,0.33-5.92,0.14c-0.18-0.02-0.77-0.19-0.66-0.38
							c-2.46,0.09-7.51-0.62-4.45-0.95c2.96-0.32,6.36,0.14,9.38,0c1.3-0.06,3.48-0.54,2.6-0.14c0.83,0.18,6,0.23,6.3,0.14
							C59.67,78.11,59.37,77.88,59.45,77.85z"/>
					</g>
				</g>
			</g>
		</g>
	</g>
</g>
<g>
	<g>
		<g>
			<path class="st27" d="M21.79,64.71l-8.36-27.03c-0.1-0.36-0.24-0.65-0.43-0.88c-0.19-0.23-0.41-0.39-0.66-0.49l-2.11-0.94v-1.56
				h11.09v1.56l-3.65,1.26l5.87,18.71l0.7,3.16h0.38l6.06-18.62l2.26-5.57h3.07l6.74,20.97l0.81,3.26h0.34l7.04-21.78l-3.71-1.39
				v-1.56h9.66v1.56l-2.09,1c-0.23,0.1-0.44,0.25-0.64,0.46s-0.34,0.43-0.43,0.67l-7.25,21.7l-2.2,5.5h-3.14l-6.81-21.27l-0.73-2.88
				h-0.32l-6.1,18.64l-2.24,5.5H21.79z"/>
			<path class="st27" d="M57.9,64.41v-1.6l2.56-0.85c0.26-0.08,0.5-0.25,0.75-0.49c0.24-0.24,0.46-0.48,0.64-0.72l8.47-11.26
				l-8.21-12.07c-0.16-0.24-0.35-0.47-0.59-0.68c-0.23-0.21-0.47-0.36-0.71-0.45l-2.52-0.9v-1.56h11.46v1.56l-2.86,1.26l5.14,7.49
				l1.32,2.52h0.13l7-9.9l-2.75-1.37v-1.56h9.45v1.56l-2.37,0.9c-0.2,0.07-0.43,0.22-0.68,0.44s-0.48,0.47-0.68,0.74l-8.17,10.97
				l8.45,12.37c0.18,0.27,0.39,0.51,0.62,0.72s0.46,0.36,0.68,0.43l2.47,0.87v1.6H76.06v-1.6l2.88-1.24l-5.33-7.85l-1.34-2.45h-0.13
				l-7.32,10.22l2.75,1.32v1.6H57.9z"/>
		</g>
	</g>
	<g>
		<g>
			<path class="st28" d="M18.91,64.83L10.55,37.8c-0.1-0.36-0.24-0.65-0.43-0.88c-0.19-0.23-0.41-0.39-0.66-0.49L7.35,35.5v-1.56
				h11.09v1.56l-3.65,1.26l5.87,18.71l0.7,3.16h0.38L27.8,40l2.26-5.57h3.07l6.74,20.97l0.81,3.26h0.34l7.04-21.78l-3.71-1.39v-1.56
				h9.66v1.56l-2.09,1c-0.23,0.1-0.44,0.25-0.64,0.46s-0.34,0.43-0.43,0.67l-7.25,21.7l-2.2,5.5h-3.14l-6.81-21.27l-0.73-2.88h-0.32
				l-6.1,18.65l-2.24,5.5H18.91z"/>
			<path class="st28" d="M55.03,64.53v-1.6l2.56-0.85c0.26-0.09,0.5-0.25,0.75-0.49c0.24-0.24,0.46-0.48,0.64-0.73l8.47-11.26
				l-8.21-12.07c-0.16-0.24-0.35-0.47-0.59-0.68c-0.23-0.21-0.47-0.36-0.71-0.45l-2.52-0.9v-1.56h11.46v1.56l-2.86,1.26l5.14,7.49
				l1.32,2.52h0.13l7-9.9l-2.75-1.37v-1.56h9.45v1.56l-2.37,0.9c-0.2,0.07-0.43,0.22-0.68,0.44s-0.48,0.47-0.68,0.74l-8.17,10.97
				l8.45,12.37c0.18,0.27,0.39,0.51,0.62,0.73s0.46,0.36,0.68,0.43l2.47,0.88v1.6H73.18v-1.6l2.88-1.24l-5.33-7.85l-1.34-2.45h-0.13
				l-7.32,10.22l2.75,1.32v1.6H55.03z"/>
		</g>
	</g>
</g>
</svg>
